<?xml version="1.0" standalone="no"?>
<!DOCTYPE svg PUBLIC "-//W3C//DTD SVG 20010904//EN"
 "http://www.w3.org/TR/2001/REC-SVG-20010904/DTD/svg10.dtd">
<svg version="1.0" xmlns="http://www.w3.org/2000/svg"
 width="900.000000pt" height="780.000000pt" viewBox="0 0 900.000000 780.000000"
 preserveAspectRatio="xMidYMid meet">

<g transform="translate(0.000000,780.000000) scale(0.100000,-0.100000)"
fill="#000000" stroke="none">
<path d="M2932 7161 c-135 -34 -215 -305 -198 -671 3 -80 11 -176 16 -214 19
-130 80 -357 115 -431 19 -41 35 -79 35 -84 0 -6 -20 -59 -44 -118 -92 -226
-149 -458 -187 -763 -12 -93 -2 -376 16 -450 7 -30 16 -74 20 -97 6 -40 5 -43
-17 -44 -30 -1 -54 -5 -168 -30 -298 -64 -307 -67 -235 -68 49 -1 203 24 335
54 96 22 106 20 119 -16 18 -52 15 -57 -46 -69 -181 -35 -315 -65 -368 -84
-51 -18 -56 -21 -32 -24 15 -2 62 4 105 13 42 10 129 28 192 42 191 42 171 44
208 -28 18 -34 32 -65 32 -69 0 -5 -37 -22 -82 -38 -99 -36 -138 -55 -197 -95
-61 -42 -39 -44 45 -6 100 45 245 101 254 97 4 -2 39 -50 78 -108 81 -120 147
-191 259 -279 43 -34 83 -66 90 -71 34 -27 134 -86 199 -117 41 -19 74 -36 74
-38 0 -1 -15 -36 -34 -78 -87 -190 -197 -579 -236 -832 -6 -38 -15 -88 -20
-110 -10 -47 -46 -276 -55 -352 l-6 -52 78 -37 c99 -46 283 -115 293 -109 12
7 -5 80 -18 78 -7 -2 -12 2 -12 7 0 6 4 10 9 10 6 0 10 59 9 143 -1 78 2 158
5 177 3 19 8 69 11 110 7 104 17 170 27 170 8 0 41 -98 58 -170 56 -249 159
-413 297 -477 97 -44 192 -36 251 22 6 7 30 15 52 19 51 8 115 63 131 111 6
19 13 56 15 82 3 29 10 50 20 55 23 14 55 83 55 122 0 67 -60 163 -135 217
-24 17 -133 148 -198 239 -50 68 -61 67 -26 -3 36 -71 113 -168 213 -266 98
-96 116 -127 116 -197 0 -42 -59 -110 -108 -124 -52 -14 -109 -12 -166 5 -27
8 -51 14 -53 12 -1 -2 10 -13 26 -25 31 -22 110 -45 133 -38 7 2 33 7 57 11
l44 6 -6 -40 c-20 -148 -203 -193 -323 -79 -44 42 -51 19 -9 -29 24 -28 49
-45 80 -54 25 -7 45 -16 45 -19 0 -9 -64 -30 -91 -30 -64 0 -168 57 -229 127
-66 74 -93 128 -134 273 -25 86 -65 220 -116 385 -37 119 -52 217 -50 340 2
148 4 170 17 187 6 7 21 44 32 83 14 45 33 81 53 102 20 21 27 33 17 33 -14 0
-149 66 -249 122 -102 57 -194 131 -300 237 -92 93 -210 243 -210 268 0 5 41
24 90 42 50 18 116 47 148 63 50 25 53 28 22 22 -19 -3 -88 -24 -153 -45 -65
-21 -122 -39 -128 -39 -12 0 -71 118 -61 124 4 2 45 11 90 20 107 20 244 54
251 62 7 8 -72 -1 -194 -21 -189 -31 -169 -32 -183 11 -6 21 -8 41 -4 45 4 3
88 23 187 43 99 20 203 43 230 50 l50 15 -60 -6 c-59 -5 -207 -29 -353 -57
-54 -10 -74 -11 -77 -2 -6 15 -35 232 -35 255 0 14 10 21 38 25 133 24 345
118 475 212 38 27 75 53 83 59 10 7 20 6 31 -2 100 -69 182 -100 298 -115 255
-31 475 57 626 250 29 36 72 150 86 226 14 79 14 93 0 167 -17 85 -42 144 -81
192 l-23 29 -164 -16 c-90 -9 -174 -19 -186 -22 -13 -4 -23 -2 -23 3 0 5 75
84 168 175 168 168 331 306 471 400 42 28 112 78 156 111 l79 59 16 -23 c8
-13 43 -56 77 -95 144 -167 468 -592 458 -602 -5 -6 -180 25 -228 39 -44 13
-72 -7 -107 -76 -66 -131 -58 -341 19 -496 22 -44 46 -86 53 -94 95 -102 138
-138 212 -175 78 -39 155 -60 220 -60 24 0 41 -10 70 -40 96 -102 241 -114
296 -25 l20 33 91 -60 c108 -72 275 -153 362 -177 51 -14 62 -20 60 -36 -6
-49 -23 -138 -27 -143 -6 -5 -45 5 -176 46 -52 16 -115 32 -140 36 l-45 6 60
-24 c33 -14 113 -41 178 -62 132 -41 123 -28 85 -131 -11 -29 -21 -53 -22 -53
-2 0 -54 30 -117 66 -150 87 -209 117 -209 104 0 -12 96 -75 226 -149 l92 -52
-30 -55 c-21 -38 -35 -54 -45 -50 -8 3 -57 39 -109 78 -52 40 -109 82 -126 92
-30 19 -30 19 -20 0 12 -22 78 -79 175 -149 37 -27 67 -53 67 -58 0 -15 -55
-89 -116 -156 -113 -124 -249 -218 -511 -351 -68 -34 -123 -63 -123 -65 0 -1
31 -63 97 -189 12 -23 24 -60 26 -82 3 -21 14 -79 25 -129 11 -49 25 -126 31
-170 6 -44 13 -93 16 -110 3 -19 2 -25 -4 -17 -5 9 -14 -27 -26 -100 -51 -341
-135 -572 -228 -629 -33 -19 -137 -28 -137 -11 0 5 11 22 26 38 49 56 122 242
85 220 -6 -4 -11 -12 -11 -17 0 -30 -65 -144 -103 -183 -52 -51 -102 -71 -160
-62 -51 8 -79 30 -107 84 -25 48 -20 62 21 62 42 0 81 23 122 71 36 42 63 99
47 99 -4 0 -22 -23 -39 -50 -45 -73 -81 -92 -161 -87 -59 5 -67 8 -98 42 -32
35 -34 41 -30 90 5 62 49 128 110 166 33 20 57 49 42 49 -17 0 -84 -43 -110
-72 -72 -75 -93 -170 -54 -233 22 -36 60 -65 85 -65 9 0 15 -9 15 -22 1 -40
37 -104 75 -133 42 -33 126 -45 173 -26 22 9 35 9 67 -5 98 -41 208 22 255
146 31 81 71 160 81 160 8 0 15 -108 9 -135 -1 -5 -4 -44 -6 -85 -2 -41 -10
-104 -18 -140 -7 -36 -10 -69 -6 -73 15 -16 259 111 252 131 -2 7 2 10 12 6 8
-3 31 3 49 15 19 12 41 21 50 21 9 0 18 3 20 8 10 16 -71 382 -142 642 -57
209 -71 259 -86 300 -9 25 -22 68 -30 95 -12 45 -59 178 -114 325 -12 30 -21
57 -21 60 0 3 17 12 38 19 223 78 496 280 618 457 21 30 42 54 47 54 5 0 52
-30 106 -68 110 -77 188 -129 246 -161 l40 -23 -25 22 c-14 12 -97 74 -185
138 -88 63 -162 117 -164 119 -5 4 51 113 61 119 4 3 91 -39 193 -92 172 -89
236 -114 168 -66 -29 20 -253 144 -310 171 -18 8 -33 21 -33 28 0 6 12 44 26
83 21 55 31 70 43 67 9 -3 57 -17 106 -32 212 -64 232 -57 29 11 l-146 49 6
35 c3 19 10 55 15 80 16 73 23 306 13 430 -11 130 -32 265 -72 455 l-28 130
24 40 c83 143 149 341 180 547 18 121 20 495 4 628 -16 129 -56 330 -80 396
-40 116 -84 161 -144 150 -51 -10 -314 -191 -491 -339 -27 -23 -81 -69 -120
-101 -38 -32 -109 -97 -157 -145 l-88 -85 -52 23 c-74 33 -276 96 -383 120
-258 57 -551 57 -837 0 l-148 -30 -44 41 c-72 68 -215 178 -316 245 -81 54
-255 155 -266 155 -2 0 -27 11 -57 24 -162 75 -354 117 -435 97z m23 -61 c-3
-5 -13 -10 -21 -10 -8 0 -12 -4 -9 -10 3 -5 1 -10 -4 -10 -17 0 -13 18 7 29
22 13 35 14 27 1z m52 4 c-3 -3 -12 -4 -19 -1 -8 3 -5 6 6 6 11 1 17 -2 13 -5z
m90 -10 c-3 -3 -12 -4 -19 -1 -8 3 -5 6 6 6 11 1 17 -2 13 -5z m3267 -19 c11
-8 18 -17 15 -19 -2 -2 -15 4 -28 15 -27 22 -15 26 13 4z m-3399 -15 c-3 -5
-14 -10 -23 -9 -14 0 -13 2 3 9 27 11 27 11 20 0z m3371 -1 c3 -6 1 -16 -5
-22 -9 -9 -10 -7 -5 7 5 13 4 17 -4 12 -7 -4 -12 -2 -12 3 0 14 17 14 26 0z
m-3103 -6 c-7 -2 -19 -2 -25 0 -7 3 -2 5 12 5 14 0 19 -2 13 -5z m-355 -27
c-7 -8 -15 -12 -17 -11 -5 6 10 25 20 25 5 0 4 -6 -3 -14z m3362 4 c-35 -24
-54 -31 -30 -11 14 11 30 21 35 21 6 0 3 -5 -5 -10z m54 -14 c-3 -9 -10 -16
-15 -16 -5 0 -4 9 3 20 14 22 21 20 12 -4z m-3295 -46 c44 -34 137 -140 124
-140 -5 0 -47 11 -93 25 -46 14 -101 25 -123 25 l-40 0 7 52 c4 29 12 59 19
66 16 20 62 8 106 -28z m3379 -15 c25 -52 26 -55 11 -55 -5 0 -35 -12 -65 -26
-31 -14 -57 -24 -60 -21 -10 10 69 147 85 147 4 0 17 -20 29 -45z m-3283 -13
c-7 -7 -45 29 -45 41 0 6 11 0 25 -13 14 -13 23 -26 20 -28z m3185 28 c-6 -11
-13 -20 -16 -20 -2 0 0 9 6 20 6 11 13 20 16 20 2 0 0 -9 -6 -20z m140 -10
c18 -42 9 -45 -11 -4 -9 19 -13 34 -9 34 4 0 13 -14 20 -30z m-3576 -14 c-3
-15 -8 -25 -11 -23 -2 3 -1 17 3 31 3 15 8 25 11 23 2 -3 1 -17 -3 -31z m566
24 c0 -5 -2 -10 -4 -10 -3 0 -8 5 -11 10 -3 6 -1 10 4 10 6 0 11 -4 11 -10z
m2730 -14 c0 -2 -7 -7 -16 -10 -8 -3 -12 -2 -9 4 6 10 25 14 25 6z m-3023 -48
c-3 -8 -6 -5 -6 6 -1 11 2 17 5 13 3 -3 4 -12 1 -19z m2943 -12 c0 -2 -7 -7
-16 -10 -8 -3 -12 -2 -9 4 6 10 25 14 25 6z m-3223 -28 c-3 -8 -6 -5 -6 6 -1
11 2 17 5 13 3 -3 4 -12 1 -19z m733 2 c0 -5 -2 -10 -4 -10 -3 0 -8 5 -11 10
-3 6 -1 10 4 10 6 0 11 -4 11 -10z m2846 -50 c29 -132 30 -123 -26 -143 -53
-19 -171 -84 -234 -129 -22 -16 -41 -26 -43 -24 -2 2 3 16 12 32 8 16 26 54
39 84 72 168 65 159 141 201 38 21 76 38 84 37 9 -2 19 -26 27 -58z m-3350 2
c86 -27 90 -30 126 -82 36 -52 98 -156 98 -163 0 -2 -30 12 -67 30 -84 40
-195 66 -290 67 l-73 1 0 94 0 94 59 -6 c32 -4 99 -19 147 -35z m2929 28 c-3
-5 -12 -10 -18 -10 -7 0 -6 4 3 10 19 12 23 12 15 0z m-2790 -10 c3 -5 1 -10
-4 -10 -6 0 -11 5 -11 10 0 6 2 10 4 10 3 0 8 -4 11 -10z m-378 -32 c-3 -7 -5
-2 -5 12 0 14 2 19 5 13 2 -7 2 -19 0 -25z m3143 12 c0 -5 -5 -10 -11 -10 -5
0 -7 5 -4 10 3 6 8 10 11 10 2 0 4 -4 4 -10z m240 6 c0 -3 -4 -8 -10 -11 -5
-3 -10 -1 -10 4 0 6 5 11 10 11 6 0 10 -2 10 -4z m-290 -35 c0 -5 -7 -12 -16
-15 -14 -5 -15 -4 -4 9 14 17 20 19 20 6z m-3110 -16 c0 -8 -4 -15 -10 -15 -5
0 -7 7 -4 15 4 8 8 15 10 15 2 0 4 -7 4 -15z m3657 -47 c-3 -7 -5 -2 -5 12 0
14 2 19 5 13 2 -7 2 -19 0 -25z m-2647 -9 c0 -6 -4 -7 -10 -4 -5 3 -10 11 -10
16 0 6 5 7 10 4 6 -3 10 -11 10 -16z m2322 -11 c-7 -7 -12 -8 -12 -2 0 14 12
26 19 19 2 -3 -1 -11 -7 -17z m-322 9 c0 -2 -10 -12 -22 -23 l-23 -19 19 23
c18 21 26 27 26 19z m15 -26 c-3 -6 -11 -11 -16 -11 -5 0 -4 6 3 14 14 16 24
13 13 -3z m-1961 -12 c-8 -13 -21 -11 -27 5 -4 10 0 12 14 9 10 -3 16 -9 13
-14z m-554 -9 c0 -5 -2 -10 -4 -10 -3 0 -8 5 -11 10 -3 6 -1 10 4 10 6 0 11
-4 11 -10z m39 -30 c0 -10 -3 -8 -9 5 -12 27 -12 43 0 25 5 -8 9 -22 9 -30z
m2752 -16 c-12 -21 -21 -46 -22 -54 0 -9 -2 -10 -5 -3 -3 6 5 35 17 64 13 29
25 47 26 42 2 -6 -5 -28 -16 -49z m366 9 c-3 -10 -5 -2 -5 17 0 19 2 27 5 18
2 -10 2 -26 0 -35z m-37 -102 l0 -138 -62 -6 c-35 -4 -125 -22 -201 -42 -76
-19 -140 -35 -142 -35 -3 0 2 17 11 38 9 20 21 53 26 72 13 47 27 61 125 126
73 48 214 123 236 124 4 0 7 -62 7 -139z m-700 109 c-21 -17 -23 -21 -10 -30
9 -6 10 -10 3 -10 -24 0 -26 24 -3 42 12 10 25 18 29 18 3 0 -5 -9 -19 -20z
m-2611 -19 c78 -26 173 -75 199 -104 10 -12 40 -61 65 -109 l47 -87 -56 -46
c-31 -25 -59 -45 -62 -46 -4 0 -63 -1 -132 -3 -118 -3 -147 -8 -296 -51 -28
-9 -31 0 -39 132 l-7 111 29 6 c38 9 242 -11 318 -30 101 -26 188 -54 202 -65
9 -9 13 -8 13 0 0 22 -159 81 -267 101 -34 6 -114 12 -178 13 l-115 2 0 96 c0
53 3 99 8 103 14 15 205 -2 271 -23z m-312 -48 c-2 -16 -4 -5 -4 22 0 28 2 40
4 28 2 -13 2 -35 0 -50z m1133 48 c0 -15 -36 -28 -55 -20 -18 8 -18 8 4 6 13
-1 26 4 29 12 3 9 0 11 -8 6 -8 -5 -11 -4 -6 3 7 11 36 6 36 -7z m660 -21 c0
-5 -8 -10 -17 -10 -15 0 -16 2 -3 10 19 12 20 12 20 0z m-1813 -37 c-3 -10 -5
-4 -5 12 0 17 2 24 5 18 2 -7 2 -21 0 -30z m1678 27 c3 -6 -1 -7 -9 -4 -18 7
-21 14 -7 14 6 0 13 -4 16 -10z m410 -10 c-3 -5 -11 -10 -16 -10 -6 0 -7 5 -4
10 3 6 11 10 16 10 6 0 7 -4 4 -10z m62 4 c-3 -3 -12 -4 -19 -1 -8 3 -5 6 6 6
11 1 17 -2 13 -5z m733 -4 c0 -5 -2 -10 -4 -10 -3 0 -8 5 -11 10 -3 6 -1 10 4
10 6 0 11 -4 11 -10z m807 -22 c-3 -7 -5 -2 -5 12 0 14 2 19 5 13 2 -7 2 -19
0 -25z m-2572 12 c-11 -5 -27 -9 -35 -9 -9 0 -8 4 5 9 11 5 27 9 35 9 9 0 8
-4 -5 -9z m412 -22 c-3 -7 -5 -2 -5 12 0 14 2 19 5 13 2 -7 2 -19 0 -25z m323
22 c8 -5 11 -10 5 -10 -5 0 -17 5 -25 10 -8 5 -10 10 -5 10 6 0 17 -5 25 -10z
m350 5 c0 -2 -10 -10 -22 -16 -21 -11 -22 -11 -9 4 13 16 31 23 31 12z m-90
-15 c0 -5 -5 -10 -11 -10 -5 0 -7 5 -4 10 3 6 8 10 11 10 2 0 4 -4 4 -10z
m-370 -10 c0 -5 -4 -10 -9 -10 -6 0 -13 5 -16 10 -3 6 1 10 9 10 9 0 16 -4 16
-10z m1094 -5 c-4 -8 -11 -15 -16 -15 -6 0 -5 6 2 15 7 8 14 15 16 15 2 0 1
-7 -2 -15z m-924 -5 c-8 -5 -26 -9 -40 -9 l-25 1 25 8 c14 4 32 8 40 9 13 1
13 0 0 -9z m90 -5 c0 -8 -2 -15 -4 -15 -2 0 -6 7 -10 15 -3 8 -1 15 4 15 6 0
10 -7 10 -15z m83 -5 c3 -11 1 -18 -4 -14 -5 3 -9 12 -9 20 0 20 7 17 13 -6z
m-2076 -52 c-2 -13 -4 -3 -4 22 0 25 2 35 4 23 2 -13 2 -33 0 -45z m1313 58
c0 -2 -9 -6 -20 -9 -11 -3 -18 -1 -14 4 5 9 34 13 34 5z m450 -6 c0 -5 -5 -10
-11 -10 -5 0 -7 5 -4 10 3 6 8 10 11 10 2 0 4 -4 4 -10z m340 0 c0 -5 -2 -10
-4 -10 -3 0 -8 5 -11 10 -3 6 -1 10 4 10 6 0 11 -4 11 -10z m-1117 -7 c-7 -2
-19 -2 -25 0 -7 3 -2 5 12 5 14 0 19 -2 13 -5z m1427 3 c0 -11 -19 -15 -25 -6
-3 5 1 10 9 10 9 0 16 -2 16 -4z m1267 -43 c-3 -10 -5 -4 -5 12 0 17 2 24 5
18 2 -7 2 -21 0 -30z m-2056 1 l24 -27 -27 18 c-16 9 -28 21 -28 26 0 14 5 11
31 -17z m-1021 1 c0 -8 -2 -15 -4 -15 -2 0 -6 7 -10 15 -3 8 -1 15 4 15 6 0
10 -7 10 -15z m317 9 c-3 -3 -12 -4 -19 -1 -8 3 -5 6 6 6 11 1 17 -2 13 -5z
m238 -4 c-3 -5 -14 -10 -23 -9 -14 0 -13 2 3 9 27 11 27 11 20 0z m862 4 c-3
-3 -12 -4 -19 -1 -8 3 -5 6 6 6 11 1 17 -2 13 -5z m473 2 c0 -9 -30 -14 -35
-6 -4 6 3 10 14 10 12 0 21 -2 21 -4z m-1080 -16 c0 -5 -4 -10 -10 -10 -5 0
-10 5 -10 10 0 6 5 10 10 10 6 0 10 -4 10 -10z m543 3 c-7 -2 -21 -2 -30 0
-10 3 -4 5 12 5 17 0 24 -2 18 -5z m337 -13 c0 -5 -5 -10 -11 -10 -5 0 -7 5
-4 10 3 6 8 10 11 10 2 0 4 -4 4 -10z m275 0 c3 -5 1 -10 -4 -10 -6 0 -11 5
-11 10 0 6 2 10 4 10 3 0 8 -4 11 -10z m-1490 -10 c-3 -5 -14 -10 -23 -9 -14
0 -13 2 3 9 27 11 27 11 20 0z m1705 0 c0 -5 -4 -10 -10 -10 -5 0 -10 5 -10
10 0 6 5 10 10 10 6 0 10 -4 10 -10z m-1100 -20 c0 -5 -2 -10 -4 -10 -3 0 -8
5 -11 10 -3 6 -1 10 4 10 6 0 11 -4 11 -10z m556 -5 c-8 -8 -17 -15 -20 -15
-3 0 -3 7 0 15 4 8 13 15 21 15 12 0 12 -2 -1 -15z m-1456 -10 c0 -2 -9 -9
-20 -15 -16 -9 -18 -8 -14 5 5 13 34 22 34 10z m945 -15 c3 -5 2 -10 -4 -10
-5 0 -13 5 -16 10 -3 6 -2 10 4 10 5 0 13 -4 16 -10z m-234 -17 c13 -16 12
-17 -3 -4 -10 7 -18 15 -18 17 0 8 8 3 21 -13z m2196 -20 c-3 -10 -5 -4 -5 12
0 17 2 24 5 18 2 -7 2 -21 0 -30z m-2962 17 c-3 -5 -11 -10 -16 -10 -6 0 -7 5
-4 10 3 6 11 10 16 10 6 0 7 -4 4 -10z m645 0 c0 -5 -5 -10 -11 -10 -5 0 -7 5
-4 10 3 6 8 10 11 10 2 0 4 -4 4 -10z m750 -9 c-30 -17 -60 -23 -60 -11 0 6 4
9 8 6 4 -2 14 -1 22 5 8 5 22 9 30 9 13 -1 13 -2 0 -9z m-2110 -20 c0 -6 -4
-13 -10 -16 -5 -3 -10 1 -10 9 0 9 5 16 10 16 6 0 10 -4 10 -9z m3620 -18 c0
-40 -41 -317 -49 -324 -3 -4 -44 -1 -91 7 -47 7 -124 13 -171 13 -85 1 -87 2
-113 34 -26 30 -27 37 -21 92 9 86 22 105 80 125 129 45 262 76 333 79 29 1
32 -2 32 -26z m-2600 -36 c0 -12 0 -11 -24 28 l-17 30 20 -24 c12 -13 21 -28
21 -34z m827 47 c-3 -3 -12 -4 -19 -1 -8 3 -5 6 6 6 11 1 17 -2 13 -5z m103
-9 c0 -11 -31 -11 -39 -1 -9 10 -6 12 14 8 14 -2 25 -6 25 -7z m951 -7 c11
-21 11 -22 -4 -9 -10 7 -17 17 -17 22 0 15 9 10 21 -13z m-1031 -3 c-7 -8 -17
-15 -22 -15 -6 0 -5 7 2 15 7 8 17 15 22 15 6 0 5 -7 -2 -15z m35 -4 c3 -6 -4
-15 -15 -21 -19 -10 -20 -10 -8 9 15 24 15 24 23 12z m885 -26 c0 -5 -5 -3
-10 5 -5 8 -10 20 -10 25 0 6 5 3 10 -5 5 -8 10 -19 10 -25z m-350 5 c0 -5 -5
-10 -11 -10 -5 0 -7 5 -4 10 3 6 8 10 11 10 2 0 4 -4 4 -10z m717 -12 c-3 -8
-6 -5 -6 6 -1 11 2 17 5 13 3 -3 4 -12 1 -19z m-3160 -10 c-3 -8 -6 -5 -6 6
-1 11 2 17 5 13 3 -3 4 -12 1 -19z m1853 6 c0 -8 -4 -12 -10 -9 -5 3 -10 10
-10 16 0 5 5 9 10 9 6 0 10 -7 10 -16z m1807 -6 c-3 -8 -6 -5 -6 6 -1 11 2 17
5 13 3 -3 4 -12 1 -19z m-917 8 c0 -3 -4 -8 -10 -11 -5 -3 -10 -1 -10 4 0 6 5
11 10 11 6 0 10 -2 10 -4z m135 -6 c3 -6 -1 -7 -9 -4 -18 7 -21 14 -7 14 6 0
13 -4 16 -10z m-2200 -20 c-3 -5 -20 -19 -38 -31 l-32 -22 30 31 c29 29 53 43
40 22z m742 -12 c-3 -8 -6 -5 -6 6 -1 11 2 17 5 13 3 -3 4 -12 1 -19z m143 12
c0 -5 -2 -10 -4 -10 -3 0 -8 5 -11 10 -3 6 -1 10 4 10 6 0 11 -4 11 -10z m860
6 c0 -3 -4 -8 -10 -11 -5 -3 -10 -1 -10 4 0 6 5 11 10 11 6 0 10 -2 10 -4z
m1257 -73 c-2 -16 -4 -3 -4 27 0 30 2 43 4 28 2 -16 2 -40 0 -55z m-1872 48
c-16 -10 -32 -17 -34 -15 -7 7 33 33 49 34 8 0 2 -8 -15 -19z m246 4 c3 2 6
-5 6 -17 1 -11 1 -19 0 -17 -1 2 -11 15 -22 29 -12 15 -14 20 -4 12 9 -6 18
-10 20 -7z m-1351 -5 c0 -5 -5 -10 -11 -10 -5 0 -7 5 -4 10 3 6 8 10 11 10 2
0 4 -4 4 -10z m2450 -9 c0 -6 -4 -13 -10 -16 -5 -3 -10 1 -10 9 0 9 5 16 10
16 6 0 10 -4 10 -9z m-3143 -33 c-3 -7 -5 -2 -5 12 0 14 2 19 5 13 2 -7 2 -19
0 -25z m1073 22 c0 -5 -2 -10 -4 -10 -3 0 -8 5 -11 10 -3 6 -1 10 4 10 6 0 11
-4 11 -10z m2567 -47 c-3 -10 -5 -2 -5 17 0 19 2 27 5 18 2 -10 2 -26 0 -35z
m-3037 16 c0 -14 -17 -10 -23 5 -4 10 -1 13 9 9 7 -3 14 -9 14 -14z m501 -19
c5 0 9 -5 9 -11 0 -8 -5 -8 -15 1 -8 7 -14 22 -14 34 2 20 2 20 6 -1 2 -13 9
-23 14 -23z m1550 18 c-5 -13 -16 -24 -25 -26 -12 -3 -11 2 7 22 27 31 28 32
18 4z m-2292 -85 c-50 -49 -120 -125 -156 -170 -35 -46 -68 -83 -72 -83 -8 0
-65 189 -75 251 l-6 36 77 21 c101 28 110 29 225 31 l97 1 -90 -87z m196 64
c-6 -15 -45 -31 -54 -21 -8 7 21 24 31 18 5 -3 11 2 14 11 4 9 8 14 10 12 3
-2 2 -11 -1 -20z m1551 -9 l29 -33 -32 29 c-31 28 -38 36 -30 36 2 0 16 -15
33 -32z m19 21 c11 -16 1 -19 -13 -3 -7 8 -8 14 -3 14 5 0 13 -5 16 -11z m998
-4 c-3 -9 -8 -14 -10 -11 -3 3 -2 9 2 15 9 16 15 13 8 -4z m-1424 2 c-2 -2
-17 -11 -34 -21 l-30 -17 24 20 c13 12 28 21 34 21 6 0 8 -1 6 -3z m1356 -7
c3 -5 1 -10 -4 -10 -6 0 -11 5 -11 10 0 6 2 10 4 10 3 0 8 -4 11 -10z m-1601
-16 c3 -8 2 -12 -4 -9 -6 3 -10 10 -10 16 0 14 7 11 14 -7z m-1447 -16 c-3 -8
-6 -5 -6 6 -1 11 2 17 5 13 3 -3 4 -12 1 -19z m1620 7 c0 -8 -4 -12 -9 -9 -4
3 -8 9 -8 15 0 5 4 9 8 9 5 0 9 -7 9 -15z m709 -32 c-11 -11 -17 4 -9 23 7 18
8 18 11 1 2 -10 1 -21 -2 -24z m-1531 7 c3 -5 1 -10 -4 -10 -6 0 -11 5 -11 10
0 6 2 10 4 10 3 0 8 -4 11 -10z m2245 0 c0 -5 -2 -10 -4 -10 -3 0 -8 5 -11 10
-3 6 -1 10 4 10 6 0 11 -4 11 -10z m577 -32 c-3 -8 -6 -5 -6 6 -1 11 2 17 5
13 3 -3 4 -12 1 -19z m-3137 2 c0 -5 -4 -10 -10 -10 -5 0 -10 5 -10 10 0 6 5
10 10 10 6 0 10 -4 10 -10z m363 -15 c-3 -9 -8 -14 -10 -11 -3 3 -2 9 2 15 9
16 15 13 8 -4z m1677 10 c0 -2 -10 -9 -22 -15 -22 -11 -22 -10 -4 4 21 17 26
19 26 11z m-1090 -15 c0 -5 -4 -10 -10 -10 -5 0 -10 5 -10 10 0 6 5 10 10 10
6 0 10 -4 10 -10z m905 -10 c3 -5 1 -10 -4 -10 -6 0 -11 5 -11 10 0 6 2 10 4
10 3 0 8 -4 11 -10z m1315 -21 c0 -17 -4 -28 -10 -24 -5 3 -10 -1 -10 -9 0 -8
-4 -18 -10 -21 -6 -4 -7 2 -1 17 4 13 6 30 4 38 -4 13 -3 13 6 0 9 -12 11 -11
11 8 0 12 2 22 5 22 3 0 5 -14 5 -31z m-2157 -5 c-7 -19 -10 -18 -16 5 -3 13
-1 18 9 14 7 -2 10 -11 7 -19z m967 12 c0 -2 -7 -7 -16 -10 -8 -3 -12 -2 -9 4
6 10 25 14 25 6z m-1525 -16 c3 -5 1 -10 -4 -10 -6 0 -11 5 -11 10 0 6 2 10 4
10 3 0 8 -4 11 -10z m1295 -4 c0 -3 -4 -8 -10 -11 -5 -3 -10 -1 -10 4 0 6 5
11 10 11 6 0 10 -2 10 -4z m1380 -6 c0 -5 -4 -10 -10 -10 -5 0 -10 5 -10 10 0
6 5 10 10 10 6 0 10 -4 10 -10z m-2154 -15 c-11 -8 -24 -15 -30 -15 -5 0 -1 7
10 15 10 8 24 14 29 14 6 0 1 -6 -9 -14z m1614 11 c0 -2 -9 -6 -20 -9 -11 -3
-20 -1 -20 4 0 5 9 9 20 9 11 0 20 -2 20 -4z m-2012 -23 c-10 -2 -28 -2 -40 0
-13 2 -5 4 17 4 22 1 32 -1 23 -4z m2460 -9 c25 -5 32 -11 27 -23 -4 -9 -12
-47 -20 -86 -16 -85 -51 -196 -78 -250 l-20 -40 -10 25 c-14 31 -72 160 -100
220 -11 25 -36 71 -54 102 -18 31 -33 60 -33 64 0 8 237 -2 288 -12z m-1248
-14 c13 -8 13 -10 -2 -10 -9 0 -20 5 -23 10 -8 13 5 13 25 0z m690 6 c0 -2 -9
-6 -20 -9 -11 -3 -20 -1 -20 4 0 5 9 9 20 9 11 0 20 -2 20 -4z m671 -53 c-9
-16 -10 -16 -11 -1 0 9 3 25 7 35 7 16 8 17 11 1 2 -10 -1 -25 -7 -35z m-2947
10 c-10 -11 -18 -11 -34 -3 -27 14 -26 16 14 16 28 0 31 -2 20 -13z m681 -3
c-10 -11 -20 -18 -23 -16 -5 6 21 35 32 36 5 0 1 -9 -9 -20z m915 10 c0 -5 -2
-10 -4 -10 -3 0 -8 5 -11 10 -3 6 -1 10 4 10 6 0 11 -4 11 -10z m610 6 c0 -2
-7 -7 -16 -10 -8 -3 -12 -2 -9 4 6 10 25 14 25 6z m-560 -76 c0 -8 -7 -2 -15
14 -19 36 -19 45 0 20 8 -10 14 -26 15 -34z m-1555 -2 c6 -4 2 -8 -7 -8 -10 0
-18 7 -18 17 0 9 3 12 8 7 4 -5 12 -12 17 -16z m125 -8 c0 -5 -4 -10 -10 -10
-5 0 -10 5 -10 10 0 6 5 10 10 10 6 0 10 -4 10 -10z m1525 -38 c-2 -2 -12 5
-23 16 -11 11 -18 23 -15 26 3 3 14 -5 23 -17 10 -12 17 -23 15 -25z m-1165
13 c-7 -8 -17 -15 -23 -15 -6 0 -2 7 9 15 25 19 30 19 14 0z m1103 0 c-3 -9
-8 -14 -10 -11 -3 3 -2 9 2 15 9 16 15 13 8 -4z m-2133 -5 c0 -5 -5 -10 -11
-10 -5 0 -7 5 -4 10 3 6 8 10 11 10 2 0 4 -4 4 -10z m3050 -16 c0 -8 -5 -12
-10 -9 -6 4 -8 11 -5 16 9 14 15 11 15 -7z m290 6 c0 -5 -2 -10 -4 -10 -3 0
-8 5 -11 10 -3 6 -1 10 4 10 6 0 11 -4 11 -10z m-1180 -10 c0 -5 -2 -10 -4
-10 -3 0 -8 5 -11 10 -3 6 -1 10 4 10 6 0 11 -4 11 -10z m-1170 -10 c0 -5 -5
-10 -11 -10 -5 0 -7 5 -4 10 3 6 8 10 11 10 2 0 4 -4 4 -10z m-740 -15 c14 -8
19 -14 10 -14 -8 0 -24 6 -34 14 -25 19 -9 19 24 0z m3067 -7 c-3 -8 -6 -5 -6
6 -1 11 2 17 5 13 3 -3 4 -12 1 -19z m-2369 -2 c-7 -8 -15 -12 -17 -11 -5 6
10 25 20 25 5 0 4 -6 -3 -14z m1982 -4 c0 -5 -21 -13 -46 -19 -52 -12 -47 0 6
15 19 6 36 11 38 11 1 1 2 -3 2 -7z m-2633 -34 c-3 -7 -5 -2 -5 12 0 14 2 19
5 13 2 -7 2 -19 0 -25z m1893 22 c0 -5 -2 -10 -4 -10 -3 0 -8 5 -11 10 -3 6
-1 10 4 10 6 0 11 -4 11 -10z m315 0 c3 -5 2 -10 -4 -10 -5 0 -13 5 -16 10 -3
6 -2 10 4 10 5 0 13 -4 16 -10z m-2235 -20 c0 -5 -5 -10 -11 -10 -5 0 -7 5 -4
10 3 6 8 10 11 10 2 0 4 -4 4 -10z m120 0 c20 -6 21 -8 5 -8 -11 0 -29 3 -40
8 -25 11 1 11 35 0z m264 -15 c-28 -22 -40 -18 -13 4 13 11 26 17 28 15 3 -2
-4 -11 -15 -19z m256 7 c0 -5 -7 -17 -15 -28 -14 -18 -14 -17 -4 9 12 27 19
34 19 19z m1685 -2 c18 -8 17 -9 -7 -9 -16 -1 -28 4 -28 9 0 12 8 12 35 0z
m138 -1 c-8 -8 -16 -8 -30 0 -16 9 -14 10 12 11 21 0 26 -3 18 -11z m37 1 c0
-5 -5 -10 -11 -10 -5 0 -7 5 -4 10 3 6 8 10 11 10 2 0 4 -4 4 -10z m590 -9 c0
-5 -7 -11 -14 -14 -10 -4 -13 -1 -9 9 6 15 23 19 23 5z m-2767 -8 c-13 -2 -33
-2 -45 0 -13 2 -3 4 22 4 25 0 35 -2 23 -4z m2710 -17 c-21 -28 -24 -28 -16 2
3 12 12 22 20 22 11 0 10 -5 -4 -24z m-3368 -6 c3 -5 1 -10 -4 -10 -6 0 -11 5
-11 10 0 6 2 10 4 10 3 0 8 -4 11 -10z m2790 0 c3 -5 2 -10 -4 -10 -5 0 -13 5
-16 10 -3 6 -2 10 4 10 5 0 13 -4 16 -10z m-445 -10 c0 -5 -2 -10 -4 -10 -3 0
-8 5 -11 10 -3 6 -1 10 4 10 6 0 11 -4 11 -10z m327 4 c-3 -3 -12 -4 -19 -1
-8 3 -5 6 6 6 11 1 17 -2 13 -5z m-254 -21 c-13 -2 -33 -2 -45 0 -13 2 -3 4
22 4 25 0 35 -2 23 -4z m417 -7 c0 -3 -4 -8 -10 -11 -5 -3 -10 -1 -10 4 0 6 5
11 10 11 6 0 10 -2 10 -4z m513 -16 c3 -11 -2 -25 -11 -32 -13 -11 -14 -11 -7
2 5 8 8 23 7 33 -4 23 4 22 11 -3z m-168 0 c3 -5 1 -10 -4 -10 -6 0 -11 5 -11
10 0 6 2 10 4 10 3 0 8 -4 11 -10z m-2305 -31 c0 -5 -4 -9 -8 -9 -5 0 -9 7 -9
15 0 8 4 12 9 9 4 -3 8 -9 8 -15z m2320 1 c0 -5 -4 -10 -10 -10 -5 0 -10 5
-10 10 0 6 5 10 10 10 6 0 10 -4 10 -10z m172 -22 c-7 -7 -12 -8 -12 -2 0 14
12 26 19 19 2 -3 -1 -11 -7 -17z m-617 -6 c-3 -3 -11 0 -18 7 -9 10 -8 11 6 5
10 -3 15 -9 12 -12z m405 14 c0 -2 -11 -11 -25 -20 -14 -9 -25 -13 -25 -8 0 5
10 14 23 20 27 13 27 13 27 8z m-1025 -18 c3 -3 -4 -31 -15 -64 -52 -150 -11
-315 109 -435 97 -97 204 -135 357 -128 186 9 322 144 339 336 4 43 9 81 11
85 9 14 66 -20 81 -48 25 -48 21 -207 -8 -289 -42 -117 -134 -211 -218 -222
-22 -3 -41 -11 -41 -17 0 -6 16 -24 35 -39 61 -49 34 -107 -50 -107 -74 0
-119 26 -177 103 -14 20 -24 25 -31 18 -26 -26 -150 -1 -241 48 -85 45 -90 49
-152 110 -156 155 -210 434 -120 619 l21 44 48 -5 c26 -2 50 -6 52 -9z m1187
-13 c3 -13 1 -22 -3 -19 -9 5 -13 44 -5 44 2 0 6 -11 8 -25z m-2042 -22 c109
-184 62 -455 -107 -613 -114 -107 -233 -151 -413 -151 -134 -1 -186 9 -285 55
-134 62 -241 201 -274 354 -12 58 -15 171 -5 221 7 32 22 39 106 44 l38 2 3
-105 c3 -77 10 -119 25 -157 76 -187 217 -288 397 -285 203 4 352 118 404 309
26 98 26 176 2 271 -21 79 -21 78 34 85 17 2 35 5 42 6 6 0 21 -16 33 -36z
m-487 20 c-7 -2 -19 -2 -25 0 -7 3 -2 5 12 5 14 0 19 -2 13 -5z m1777 -7 c0
-11 -19 -15 -25 -6 -3 5 1 10 9 10 9 0 16 -2 16 -4z m783 -16 c-5 -19 -23 -39
-23 -25 0 9 20 45 24 45 2 0 2 -9 -1 -20z m-2765 3 c-10 -2 -26 -2 -35 0 -10
3 -2 5 17 5 19 0 27 -2 18 -5z m2017 -3 c3 -5 1 -10 -4 -10 -6 0 -11 5 -11 10
0 6 2 10 4 10 3 0 8 -4 11 -10z m-2325 -10 c0 -5 -2 -10 -4 -10 -3 0 -8 5 -11
10 -3 6 -1 10 4 10 6 0 11 -4 11 -10z m233 3 c-7 -2 -21 -2 -30 0 -10 3 -4 5
12 5 17 0 24 -2 18 -5z m2802 -2 c3 -5 1 -12 -5 -16 -5 -3 -10 1 -10 9 0 18 6
21 15 7z m-3432 -15 c3 -8 0 -17 -7 -19 -10 -4 -12 1 -9 14 6 23 9 24 16 5z
m497 10 c0 -2 -7 -6 -15 -10 -8 -3 -15 -1 -15 4 0 6 7 10 15 10 8 0 15 -2 15
-4z m2670 -6 c0 -5 -5 -10 -11 -10 -5 0 -7 5 -4 10 3 6 8 10 11 10 2 0 4 -4 4
-10z m-2970 -4 c0 -3 -4 -8 -10 -11 -5 -3 -10 -1 -10 4 0 6 5 11 10 11 6 0 10
-2 10 -4z m247 -2 c-3 -3 -12 -4 -19 -1 -8 3 -5 6 6 6 11 1 17 -2 13 -5z
m2373 2 c0 -11 -19 -15 -25 -6 -3 5 1 10 9 10 9 0 16 -2 16 -4z m-2590 -20 c0
-2 -7 -7 -16 -10 -8 -3 -12 -2 -9 4 6 10 25 14 25 6z m2637 -2 c-3 -3 -12 -4
-19 -1 -8 3 -5 6 6 6 11 1 17 -2 13 -5z m240 0 c-3 -3 -12 -4 -19 -1 -8 3 -5
6 6 6 11 1 17 -2 13 -5z m336 -9 c-3 -9 -8 -14 -10 -11 -3 3 -2 9 2 15 9 16
15 13 8 -4z m-3200 -15 c-4 -14 0 -20 11 -20 9 0 16 -4 16 -10 0 -16 -15 -12
-33 8 -13 14 -14 21 -5 30 16 16 17 15 11 -8z m37 0 c0 -5 -2 -10 -4 -10 -3 0
-8 5 -11 10 -3 6 -1 10 4 10 6 0 11 -4 11 -10z m-309 -37 c-12 -20 -14 -14 -5
12 4 9 9 14 11 11 3 -2 0 -13 -6 -23z m94 17 c3 -5 1 -10 -4 -10 -6 0 -11 5
-11 10 0 6 2 10 4 10 3 0 8 -4 11 -10z m3260 -10 c-3 -5 -10 -10 -16 -10 -5 0
-9 5 -9 10 0 6 7 10 16 10 8 0 12 -4 9 -10z m45 -31 c0 -6 -4 -7 -10 -4 -5 3
-10 11 -10 16 0 6 5 7 10 4 6 -3 10 -11 10 -16z m-3320 1 c0 -5 -2 -10 -4 -10
-3 0 -8 5 -11 10 -3 6 -1 10 4 10 6 0 11 -4 11 -10z m90 -30 c30 -31 42 -50
32 -50 -6 0 -19 14 -29 30 -19 34 -33 39 -33 13 -1 -17 -2 -17 -15 0 -7 11
-11 25 -8 33 6 15 20 9 53 -26z m3279 -117 c-2 -25 -2 -26 -6 -5 -3 13 -10 22
-16 19 -7 -2 -32 -1 -57 3 -45 7 -45 8 18 9 62 1 62 1 61 -26z m-3159 -24 c0
-6 -4 -7 -10 -4 -5 3 -10 11 -10 16 0 6 5 7 10 4 6 -3 10 -11 10 -16z m-345
-59 c3 -6 -1 -7 -9 -4 -18 7 -21 14 -7 14 6 0 13 -4 16 -10z m352 -37 c-3 -10
-5 -4 -5 12 0 17 2 24 5 18 2 -7 2 -21 0 -30z m-217 -13 c0 -5 -7 -7 -15 -4
-8 4 -15 8 -15 10 0 2 7 4 15 4 8 0 15 -4 15 -10z m125 -30 c3 -5 1 -10 -4
-10 -6 0 -11 5 -11 10 0 6 2 10 4 10 3 0 8 -4 11 -10z m120 -20 c3 -5 1 -10
-4 -10 -6 0 -11 5 -11 10 0 6 2 10 4 10 3 0 8 -4 11 -10z m3172 -62 c-3 -7 -5
-2 -5 12 0 14 2 19 5 13 2 -7 2 -19 0 -25z m-280 -10 c-3 -8 -6 -5 -6 6 -1 11
2 17 5 13 3 -3 4 -12 1 -19z m-2853 -17 c3 -5 -1 -11 -9 -14 -9 -4 -12 -1 -8
9 6 16 10 17 17 5z m2836 -41 c0 -5 -5 -10 -11 -10 -5 0 -7 5 -4 10 3 6 8 10
11 10 2 0 4 -4 4 -10z m-2926 -15 c-4 -8 -10 -15 -15 -15 -4 0 -6 7 -3 15 4 8
10 15 15 15 4 0 6 -7 3 -15z m-261 -2 c-13 -2 -33 -2 -45 0 -13 2 -3 4 22 4
25 0 35 -2 23 -4z m427 -55 c0 6 5 12 11 12 8 0 8 -5 -1 -15 -17 -20 -30 -19
-30 3 0 14 2 15 10 2 6 -10 10 -11 10 -2z m2730 8 c0 -2 -7 -6 -15 -10 -8 -3
-15 -1 -15 4 0 6 7 10 15 10 8 0 15 -2 15 -4z m83 -3 c-7 -2 -19 -2 -25 0 -7
3 -2 5 12 5 14 0 19 -2 13 -5z m106 -19 c9 -8 -45 -2 -64 6 -14 7 -8 8 20 3
22 -3 42 -7 44 -9z m-3460 -88 c1 -68 -5 -55 -12 24 -3 38 -1 57 3 45 5 -11 9
-42 9 -69z m3546 74 c3 -6 -1 -7 -9 -4 -18 7 -21 14 -7 14 6 0 13 -4 16 -10z
m-3065 -24 c0 -2 -7 -7 -16 -10 -8 -3 -12 -2 -9 4 6 10 25 14 25 6z m3150 -6
c0 -5 -2 -10 -4 -10 -3 0 -8 5 -11 10 -3 6 -1 10 4 10 6 0 11 -4 11 -10z
m-3235 -20 c3 -5 1 -10 -4 -10 -6 0 -11 5 -11 10 0 6 2 10 4 10 3 0 8 -4 11
-10z m2875 -21 c0 -6 -4 -7 -10 -4 -5 3 -10 11 -10 16 0 6 5 7 10 4 6 -3 10
-11 10 -16z m-137 -6 c-7 -3 -13 -12 -14 -21 0 -11 -2 -13 -6 -4 -6 15 17 46
26 36 3 -4 0 -9 -6 -11z m-2749 -8 c-4 -8 -8 -15 -10 -15 -2 0 -4 7 -4 15 0 8
4 15 10 15 5 0 7 -7 4 -15z m2789 2 c3 -7 -3 -13 -14 -14 -15 -1 -16 1 -6 12
15 18 14 18 20 2z m-2876 -23 c-3 -3 -12 -4 -19 -1 -8 3 -5 6 6 6 11 1 17 -2
13 -5z m2864 -21 c13 -15 12 -15 -8 -4 -24 12 -29 21 -14 21 5 0 15 -7 22 -17z
m184 7 c3 -5 1 -10 -4 -10 -6 0 -11 5 -11 10 0 6 2 10 4 10 3 0 8 -4 11 -10z
m-3065 -14 c0 -2 -7 -7 -16 -10 -8 -3 -12 -2 -9 4 6 10 25 14 25 6z m-65 -26
c3 -6 -1 -7 -9 -4 -18 7 -21 14 -7 14 6 0 13 -4 16 -10z m3216 -5 c19 -8 27
-14 19 -14 -14 0 -72 28 -59 29 4 0 22 -7 40 -15z m-186 -25 c3 -6 -1 -7 -9
-4 -18 7 -21 14 -7 14 6 0 13 -4 16 -10z m65 -12 c0 -6 -6 -5 -15 2 -8 7 -15
14 -15 16 0 2 7 1 15 -2 8 -4 15 -11 15 -16z m275 -17 c14 -6 8 -8 -22 -7 -23
0 -36 4 -30 8 15 9 26 9 52 -1z m55 -32 c0 -6 -4 -7 -10 -4 -5 3 -10 11 -10
16 0 6 5 7 10 4 6 -3 10 -11 10 -16z m-235 -29 c3 -6 -1 -7 -9 -4 -18 7 -21
14 -7 14 6 0 13 -4 16 -10z m84 1 c9 -6 10 -11 2 -15 -6 -4 -11 -3 -11 3 0 5
-12 12 -27 14 -27 4 -27 4 -3 5 14 1 31 -2 39 -7z m5 -43 c-5 -7 -64 17 -64
26 0 2 15 -2 34 -8 19 -6 32 -14 30 -18z m93 -34 c-3 -3 -12 -4 -19 -1 -8 3
-5 6 6 6 11 1 17 -2 13 -5z m40 -10 c-3 -3 -12 -4 -19 -1 -8 3 -5 6 6 6 11 1
17 -2 13 -5z m-870 -1150 c-3 -3 -12 -4 -19 -1 -8 3 -5 6 6 6 11 1 17 -2 13
-5z m-1924 -42 c-3 -12 -9 -22 -14 -22 -12 0 -11 7 2 32 13 25 20 19 12 -10z
m-3 -52 c0 -5 -2 -10 -4 -10 -3 0 -8 5 -11 10 -3 6 -1 10 4 10 6 0 11 -4 11
-10z m2029 -173 c1 -5 -3 -5 -9 -2 -5 3 -10 16 -9 28 0 21 1 21 9 2 5 -11 9
-24 9 -28z m-2074 -5 c-3 -3 -11 0 -18 7 -9 10 -8 11 6 5 10 -3 15 -9 12 -12z
m-22 -119 c-7 -2 -19 -2 -25 0 -7 3 -2 5 12 5 14 0 19 -2 13 -5z m14 -55 c-3
-7 -5 -2 -5 12 0 14 2 19 5 13 2 -7 2 -19 0 -25z m-87 -58 c0 -5 -5 -10 -11
-10 -5 0 -7 5 -4 10 3 6 8 10 11 10 2 0 4 -4 4 -10z m2217 -52 c-3 -8 -6 -5
-6 6 -1 11 2 17 5 13 3 -3 4 -12 1 -19z m33 -60 c0 -5 -4 -8 -10 -8 -5 0 -10
10 -10 23 0 18 2 19 10 7 5 -8 10 -18 10 -22z m50 -122 c0 -5 -7 -1 -15 10 -8
10 -14 24 -14 29 0 6 6 1 14 -9 8 -11 15 -24 15 -30z m-2250 1 c0 -5 -4 -5
-10 -2 -5 3 -10 14 -10 23 0 15 2 15 10 2 5 -8 10 -19 10 -23z m70 -13 c0 -8
-5 -12 -10 -9 -6 4 -8 11 -5 16 9 14 15 11 15 -7z m2097 -16 c-3 -8 -6 -5 -6
6 -1 11 2 17 5 13 3 -3 4 -12 1 -19z m-2130 -20 c-3 -8 -6 -5 -6 6 -1 11 2 17
5 13 3 -3 4 -12 1 -19z m2240 -10 c-3 -8 -6 -5 -6 6 -1 11 2 17 5 13 3 -3 4
-12 1 -19z m-2260 -30 c-3 -8 -6 -5 -6 6 -1 11 2 17 5 13 3 -3 4 -12 1 -19z
m-130 -14 c2 -19 2 -19 -4 0 -3 13 -7 15 -13 7 -5 -10 -9 -9 -13 2 -4 10 0 14
11 13 9 -2 18 -11 19 -22z m-40 -36 c-3 -8 -6 -5 -6 6 -1 11 2 17 5 13 3 -3 4
-12 1 -19z m81 -43 c-3 -3 -9 2 -12 12 -6 14 -5 15 5 6 7 -7 10 -15 7 -18z
m122 5 c0 -5 -2 -10 -4 -10 -3 0 -8 5 -11 10 -3 6 -1 10 4 10 6 0 11 -4 11
-10z m-147 -24 c4 -10 1 -13 -9 -9 -15 6 -19 23 -5 23 5 0 11 -7 14 -14z
m2377 -46 c0 -5 -2 -10 -4 -10 -3 0 -8 5 -11 10 -3 6 -1 10 4 10 6 0 11 -4 11
-10z m-2463 -67 c-3 -10 -5 -2 -5 17 0 19 2 27 5 18 2 -10 2 -26 0 -35z m2343
-33 c0 -5 -4 -10 -10 -10 -5 0 -10 5 -10 10 0 6 5 10 10 10 6 0 10 -4 10 -10z
m55 0 c3 -5 1 -10 -4 -10 -6 0 -11 5 -11 10 0 6 2 10 4 10 3 0 8 -4 11 -10z
m-18 -26 c-3 -3 -12 -4 -19 -1 -8 3 -5 6 6 6 11 1 17 -2 13 -5z m-2232 -34 c3
-5 2 -10 -4 -10 -5 0 -13 5 -16 10 -3 6 -2 10 4 10 5 0 13 -4 16 -10z m2362 4
c-3 -3 -12 -4 -19 -1 -8 3 -5 6 6 6 11 1 17 -2 13 -5z m-2297 -30 c0 -2 -9 -4
-20 -4 -11 0 -20 4 -20 9 0 5 9 7 20 4 11 -3 20 -7 20 -9z m2125 -34 c3 -5 2
-10 -4 -10 -5 0 -13 5 -16 10 -3 6 -2 10 4 10 5 0 13 -4 16 -10z m194 -41
c-25 -16 -33 -9 -13 10 10 10 21 14 23 8 2 -5 -3 -13 -10 -18z m-59 7 c0 -3
-4 -8 -10 -11 -5 -3 -10 -1 -10 4 0 6 5 11 10 11 6 0 10 -2 10 -4z m-2295 -46
c3 -5 2 -10 -4 -10 -5 0 -13 5 -16 10 -3 6 -2 10 4 10 5 0 13 -4 16 -10z
m-160 -60 c3 -5 2 -10 -4 -10 -5 0 -13 5 -16 10 -3 6 -2 10 4 10 5 0 13 -4 16
-10z m2373 -4 c-7 -8 -15 -12 -17 -11 -5 6 10 25 20 25 5 0 4 -6 -3 -14z m182
-6 c0 -5 -5 -10 -11 -10 -5 0 -7 5 -4 10 3 6 8 10 11 10 2 0 4 -4 4 -10z
m-2515 -10 c3 -5 1 -10 -4 -10 -6 0 -11 5 -11 10 0 6 2 10 4 10 3 0 8 -4 11
-10z m2540 -21 c-10 -15 -25 -10 -19 6 4 8 10 12 15 9 5 -3 7 -10 4 -15z m-45
-9 c0 -5 -2 -10 -4 -10 -3 0 -8 5 -11 10 -3 6 -1 10 4 10 6 0 11 -4 11 -10z
m-2525 -10 c3 -5 2 -10 -4 -10 -5 0 -13 5 -16 10 -3 6 -2 10 4 10 5 0 13 -4
16 -10z m2305 5 c0 -2 -10 -10 -22 -16 -21 -11 -22 -11 -9 4 13 16 31 23 31
12z m-2235 -53 c-3 -3 -11 0 -18 7 -9 10 -8 11 6 5 10 -3 15 -9 12 -12z m122
-4 c-3 -8 -6 -5 -6 6 -1 11 2 17 5 13 3 -3 4 -12 1 -19z m-87 -18 c0 -5 -2
-10 -4 -10 -3 0 -8 5 -11 10 -3 6 -1 10 4 10 6 0 11 -4 11 -10z m80 -10 c0 -5
-2 -10 -4 -10 -3 0 -8 5 -11 10 -3 6 -1 10 4 10 6 0 11 -4 11 -10z m-4 -28
c-10 -2 -22 0 -28 6 -6 6 0 7 19 4 21 -5 23 -7 9 -10z"/>
<path d="M4490 4771 c0 -19 51 -65 97 -90 12 -6 47 -11 77 -11 52 0 59 3 101
43 51 50 61 80 15 47 -16 -11 -32 -25 -35 -30 -3 -5 -24 -14 -45 -20 -54 -15
-111 2 -159 46 -44 39 -51 41 -51 15z"/>
<path d="M4617 4488 c-48 -66 -120 -193 -196 -351 -95 -195 -109 -233 -94
-248 12 -12 15 -5 122 227 49 106 156 307 196 367 l18 28 50 -88 c52 -92 124
-240 138 -283 19 -61 60 -165 68 -173 21 -21 16 26 -10 108 -63 193 -207 445
-255 445 -7 0 -24 -15 -37 -32z"/>
<path d="M5112 2798 c-12 -68 -34 -154 -48 -193 -36 -97 -40 -116 -15 -78 53
84 116 337 94 378 -7 12 -16 -18 -31 -107z"/>
</g>
</svg>
